<svg xmlns="http://www.w3.org/2000/svg" width="24" height="24" viewBox="0 0 24 24">
    <g fill="none" fill-rule="evenodd">
        <g>
            <g>
                <path d="M0 0L24 0 24 24 0 24z" transform="translate(-1072.000000, -5340.000000) translate(1072.000000, 5340.000000)"/>
                <path stroke="#656771" stroke-linecap="round" stroke-linejoin="round" d="M14 3v4c0 .552.448 1 1 1h4" transform="translate(-1072.000000, -5340.000000) translate(1072.000000, 5340.000000)"/>
                <path stroke="#656771" stroke-linecap="round" stroke-linejoin="round" d="M17 21H7c-1.105 0-2-.895-2-2V5c0-1.105.895-2 2-2h7l5 5v11c0 1.105-.895 2-2 2zM9 9L10 9M9 13L15 13M9 17L15 17" transform="translate(-1072.000000, -5340.000000) translate(1072.000000, 5340.000000)"/>
            </g>
        </g>
    </g>
</svg>
