<svg xmlns="http://www.w3.org/2000/svg" width="21" height="20" viewBox="0 0 21 20">
    <g fill="none" fill-rule="evenodd">
        <g>
            <g>
                <g>
                    <g>
                        <path d="M0 0L21 0 21 20 0 20z" transform="translate(-68.000000, -1643.000000) translate(16.000000, 1625.000000) translate(52.000000, 17.000000) translate(0.000000, 1.000000)"/>
                        <path stroke="#FFF" stroke-linecap="round" stroke-linejoin="round" d="M12.25 2.5v3.333c0 .46.392.834.875.834h3.5" transform="translate(-68.000000, -1643.000000) translate(16.000000, 1625.000000) translate(52.000000, 17.000000) translate(0.000000, 1.000000)"/>
                        <path stroke="#FFF" stroke-linecap="round" stroke-linejoin="round" d="M14.875 17.5h-8.75c-.966 0-1.75-.746-1.75-1.667V4.167c0-.92.784-1.667 1.75-1.667h6.125l4.375 4.167v9.166c0 .92-.784 1.667-1.75 1.667zM7.875 7.5L8.75 7.5M7.875 10.833L13.125 10.833M7.875 14.167L13.125 14.167" transform="translate(-68.000000, -1643.000000) translate(16.000000, 1625.000000) translate(52.000000, 17.000000) translate(0.000000, 1.000000)"/>
                    </g>
                </g>
            </g>
        </g>
    </g>
</svg>
