<svg xmlns="http://www.w3.org/2000/svg" width="80" height="80" viewBox="0 0 80 80">
    <g fill="none" fill-rule="evenodd">
        <g>
            <g>
                <path fill="#FF9F69" d="M10.256 0h59.488c3.567 0 4.86.371 6.163 1.069 1.304.697 2.327 1.72 3.024 3.024C79.63 5.396 80 6.689 80 10.256v59.488c0 3.567-.371 4.86-1.069 6.163-.697 1.304-1.72 2.327-3.024 3.024C74.604 79.63 73.311 80 69.744 80H10.256c-3.567 0-4.86-.371-6.163-1.069-1.304-.697-2.327-1.72-3.024-3.024C.37 74.604 0 73.311 0 69.744V10.256c0-3.567.371-4.86 1.069-6.163.697-1.304 1.72-2.327 3.024-3.024C5.396.37 6.689 0 10.256 0z" opacity=".1" transform="translate(-1096.000000, -2356.000000) translate(1096.000000, 2356.000000)"/>
                <g transform="translate(-1096.000000, -2356.000000) translate(1096.000000, 2356.000000) translate(20.000000, 20.000000)">
                    <path d="M0 0L40 0 40 40 0 40z"/>
                    <rect width="6.667" height="8.333" x="6.667" y="10" stroke="#FF9F69" stroke-linecap="round" stroke-linejoin="round" stroke-width="1.5" rx=".833"/>
                    <path stroke="#FF9F69" stroke-linecap="round" stroke-linejoin="round" stroke-width="1.5" d="M10 6.667L10 10M10 18.333L10 33.333"/>
                    <rect width="6.667" height="8.333" x="16.667" y="23.333" stroke="#FF9F69" stroke-linecap="round" stroke-linejoin="round" stroke-width="1.5" rx=".833"/>
                    <path stroke="#FF9F69" stroke-linecap="round" stroke-linejoin="round" stroke-width="1.5" d="M20 6.667L20 23.333M20 31.667L20 33.333"/>
                    <rect width="6.667" height="10" x="26.667" y="8.333" stroke="#FF9F69" stroke-linecap="round" stroke-linejoin="round" stroke-width="1.5" rx=".833"/>
                    <path stroke="#FF9F69" stroke-linecap="round" stroke-linejoin="round" stroke-width="1.5" d="M30 6.667L30 8.333M30 18.333L30 33.333"/>
                </g>
            </g>
        </g>
    </g>
</svg>
