<svg xmlns="http://www.w3.org/2000/svg" width="43" height="43" viewBox="0 0 43 43">
    <g fill="none" fill-rule="evenodd">
        <g>
            <g>
                <path d="M2 2H42V42H2z" transform="translate(-317.000000, -10.000000) translate(317.000000, 10.000000)"/>
                <g fill="#FFF">
                    <path d="M31.753 10.997c.488.488.488 1.28 0 1.768l-8.485 8.485 8.485 8.485c.488.488.488 1.28 0 1.768s-1.28.488-1.768 0L21.5 23.017l-8.484 8.486c-.488.488-1.28.488-1.768 0s-.488-1.28 0-1.768l8.485-8.486-8.485-8.484c-.488-.488-.488-1.28 0-1.768s1.28-.488 1.768 0l8.485 8.485 8.485-8.485c.488-.488 1.28-.488 1.768 0z" transform="translate(-317.000000, -10.000000) translate(317.000000, 10.000000) translate(0.500000, 0.750000)"/>
                </g>
            </g>
        </g>
    </g>
</svg>
