<svg xmlns="http://www.w3.org/2000/svg" width="80" height="80" viewBox="0 0 80 80">
    <g fill="none" fill-rule="evenodd">
        <g>
            <g>
                <path fill="#3FD6C6" d="M10.256 0h59.488c3.567 0 4.86.371 6.163 1.069 1.304.697 2.327 1.72 3.024 3.024C79.63 5.396 80 6.689 80 10.256v59.488c0 3.567-.371 4.86-1.069 6.163-.697 1.304-1.72 2.327-3.024 3.024C74.604 79.63 73.311 80 69.744 80H10.256c-3.567 0-4.86-.371-6.163-1.069-1.304-.697-2.327-1.72-3.024-3.024C.37 74.604 0 73.311 0 69.744V10.256c0-3.567.371-4.86 1.069-6.163.697-1.304 1.72-2.327 3.024-3.024C5.396.37 6.689 0 10.256 0z" opacity=".1" transform="translate(-679.000000, -2356.000000) translate(679.000000, 2356.000000)"/>
                <g>
                    <path d="M0 0L40 0 40 40 0 40z" transform="translate(-679.000000, -2356.000000) translate(679.000000, 2356.000000) translate(20.000000, 20.000000)"/>
                    <path stroke="#3FD6C6" stroke-linecap="round" stroke-linejoin="round" stroke-width="1.5" d="M8.333 6.667H15l5 5h11.667C33.507 11.667 35 13.159 35 15v13.333c0 1.841-1.492 3.334-3.333 3.334H8.333C6.493 31.667 5 30.174 5 28.333V10c0-1.84 1.492-3.333 3.333-3.333" transform="translate(-679.000000, -2356.000000) translate(679.000000, 2356.000000) translate(20.000000, 20.000000)"/>
                </g>
            </g>
        </g>
    </g>
</svg>
