<svg xmlns="http://www.w3.org/2000/svg" xmlns:xlink="http://www.w3.org/1999/xlink" width="113" height="113" viewBox="0 0 113 113">
    <defs>
        <filter id="ky8aa131ga" width="137.6%" height="137.6%" x="-18.8%" y="-13.4%" filterUnits="objectBoundingBox">
            <feOffset dy="5" in="SourceAlpha" result="shadowOffsetOuter1"/>
            <feGaussianBlur in="shadowOffsetOuter1" result="shadowBlurOuter1" stdDeviation="5"/>
            <feColorMatrix in="shadowBlurOuter1" values="0 0 0 0 0.301960784 0 0 0 0 0.439215686 0 0 0 0 0.921568627 0 0 0 0.402289117 0"/>
        </filter>
        <rect id="23wdts905b" width="93" height="93" x="0" y="0" rx="20"/>
    </defs>
    <g fill="none" fill-rule="evenodd">
        <g>
            <g>
                <g transform="translate(-877.000000, -3495.000000) translate(887.000000, 3500.000000)">
                    <use fill="#000" filter="url(#ky8aa131ga)" xlink:href="#23wdts905b"/>
                    <use fill="#4D70EB" xlink:href="#23wdts905b"/>
                </g>
                <path fill="#FFF" d="M46.5 23L73 69H58.932l-3.282-5.698c-.964-1.672-2.713-2.73-4.63-2.815l-.25-.006h-8.54c-2.014 0-3.874 1.076-4.88 2.82L34.066 69H20l26.5-46zm0 20.444c-3.114 0-5.638 2.543-5.638 5.68 0 3.136 2.524 5.678 5.638 5.678s5.638-2.542 5.638-5.679c0-3.136-2.524-5.679-5.638-5.679z" transform="translate(-877.000000, -3495.000000) translate(887.000000, 3500.000000)"/>
            </g>
        </g>
    </g>
</svg>
