<?xml version="1.0" encoding="UTF-8"?>
<svg width="154px" height="30px" viewBox="0 0 154 30" version="1.1" xmlns="http://www.w3.org/2000/svg" xmlns:xlink="http://www.w3.org/1999/xlink">
    <title>07BA4B22-A8F1-41EF-917F-2E6199D69113</title>
    <g id="Page-1" stroke="none" stroke-width="1" fill="none" fill-rule="evenodd">
        <g id="Home-page-Update" transform="translate(-114.000000, -1297.000000)">
            <g id="Group" transform="translate(114.000000, 1297.000000)">
                <g id="Group-15">
                    <rect id="Rectangle-Copy-8" fill="#D8D8D8" opacity="0" x="0" y="0" width="29.5568182" height="29.6129032"></rect>
                    <path d="M14.7783734,0 C22.9402634,0 29.5567825,6.62907419 29.5567825,14.8064516 C29.5567825,22.983829 22.9402634,29.6129032 14.7783734,29.6129032 C14.4967038,29.6129032 14.2157707,29.6049657 13.9358188,29.5891384 C13.7203077,29.5769542 13.505426,29.5600971 13.2912881,29.538595 C11.2609869,29.3347268 9.78005734,27.5204515 9.9835394,25.4862977 C10.1844127,23.4782229 11.951693,22.0065394 13.9501844,22.1652611 L14.0281618,22.1722725 C14.1356646,22.1830671 14.2436641,22.1915395 14.3521214,22.1976712 C14.4934646,22.2056622 14.6355751,22.2096774 14.7783734,22.2096774 C18.8593184,22.2096774 22.1675779,18.8951403 22.1675779,14.8064516 C22.1675779,10.7177629 18.8593184,7.40322581 14.7783734,7.40322581 C11.8772701,7.40322581 9.28485064,9.0923026 8.07959968,11.6754673 L8.03505511,11.7727535 C7.19760004,13.6369822 5.01031481,14.4680585 3.14961683,13.6290143 C1.28891885,12.7899701 0.45941658,10.5985345 1.29687166,8.73430576 C3.66466991,3.46343499 8.90695945,0 14.7783734,0 Z M3.33221398,17.1531802 C5.09931499,16.131008 7.3588983,16.7376104 8.37913454,18.5080645 C9.39937079,20.2785187 8.79391727,22.5423896 7.02681625,23.5645618 C5.25971524,24.586734 3.00013194,23.9801316 1.97989569,22.2096774 C0.959659447,20.4392233 1.56511297,18.1753523 3.33221398,17.1531802 Z" id="Shape" fill="#727787" fill-rule="nonzero"></path>
                </g>
                <g id="Group-12" transform="translate(38.250000, 6.096774)" fill="#727787" fill-rule="nonzero">
                    <path d="M9.21896547,8.44056008e-14 C14.1226705,8.44056008e-14 18.4379309,3.55563871 18.4379309,8.79032903 C18.4379309,14.0579419 14.1226705,17.6135806 9.21896547,17.6135806 C4.3479518,17.6135806 0,14.0908645 0,8.79032903 C0,3.52271613 4.3479518,8.44056008e-14 9.21896547,8.44056008e-14 Z M9.21896547,4.21409032 C6.83249568,4.21409032 4.7402482,6.15652258 4.7402482,8.79032903 C4.7402482,11.4570581 6.83249568,13.3994903 9.21896547,13.3994903 C11.6381266,13.3994903 13.6976827,11.4241355 13.6976827,8.79032903 C13.6976827,6.18944516 11.6381266,4.21409032 9.21896547,4.21409032 Z" id="Combined-Shape"></path>
                    <path d="M25.2090065,17.2514323 L25.2090065,8.19772258 C25.2090065,5.86021935 26.1570561,4.04947742 28.4127604,4.04947742 C30.6684647,4.04947742 31.5184403,5.82729677 31.5184403,8.1648 L31.5184403,17.2514323 L36.389454,17.2514323 L36.389454,8.06603226 C36.389454,3.78609677 35.1144906,-4.25325464e-14 30.4069338,-4.25325464e-14 C28.3800691,-4.25325464e-14 26.6147353,0.691374194 25.2090065,2.66672903 L25.2090065,0.362148387 L20.3379928,0.362148387 L20.3379928,17.2514323 L25.2090065,17.2514323 Z" id="Path"></path>
                    <path d="M44.9704424,17.6135806 C48.6645669,17.6135806 51.8356295,15.8357613 51.8356295,12.3788903 C51.8356295,11.2595226 51.4760245,8.65863871 47.5203691,7.50634839 L45.0031338,6.51867097 C44.1531583,6.18944516 43.4339482,5.79437419 43.4339482,5.07007742 C43.4339482,4.21409032 44.3819978,3.68732903 45.2973561,3.68732903 C46.0492576,3.68732903 47.2588381,3.95070968 47.6838259,5.30053548 L51.4433331,3.55563871 C49.8741475,0.52676129 47.3242209,9.92426083e-14 45.3954302,9.92426083e-14 C41.7993799,9.92426083e-14 38.8244655,1.77781935 38.8244655,5.16884516 C38.8244655,5.92606452 39.0206137,8.59279355 43.0089604,10.0084645 L45.9511835,11.2595226 C46.8665417,11.5887484 47.1934554,11.9838194 47.1934554,12.5435032 C47.1934554,13.3994903 46.0819489,13.8274839 45.0031338,13.8274839 C43.6627878,13.8274839 41.9628367,13.2348774 41.4724662,11.2924452 L37.9417986,13.3007226 C39.0859964,16.8234387 42.4858986,17.6135806 44.9704424,17.6135806 Z" id="Path"></path>
                    <path d="M62.1888863,8.44056008e-14 C66.8310604,8.44056008e-14 71.2770863,3.2264129 71.2770863,9.94261935 L71.2770863,9.94261935 L57.7755518,9.94261935 C57.8736259,12.0496645 59.8024165,13.5970258 62.9080964,13.5970258 C64.6407388,13.5970258 66.3733813,12.7081161 67.5502705,11.5887484 L67.5502705,11.5887484 L70.3617281,14.2884 C67.9752583,16.9222065 64.8041957,17.6135806 62.5484914,17.6135806 C56.3371317,17.6135806 52.9372295,13.6957935 52.9372295,8.88909677 C52.9372295,3.9177871 56.7948108,8.44056008e-14 62.1888863,8.44056008e-14 Z M62.1235036,3.98363226 C60.554318,3.98363226 58.4620705,4.70792903 57.8736259,6.9795871 L57.8736259,6.9795871 L66.2753072,6.9795871 C65.9483935,4.80669677 63.7580719,3.98363226 62.1235036,3.98363226 Z" id="Combined-Shape"></path>
                    <path d="M77.8767799,17.2514323 L77.8767799,8.06603226 C77.8767799,5.82729677 79.7074964,4.74085161 81.5382129,4.74085161 C82.0285835,4.74085161 82.9112504,4.80669677 83.5977691,4.97130968 L83.5977691,0.131690323 C83.0747072,0.0329225806 82.9112504,-4.25325464e-14 82.3554971,-4.25325464e-14 C80.8843856,-4.25325464e-14 78.3017676,0.987677419 77.7460144,4.04947742 L77.7460144,0.362148387 L73.0057662,0.362148387 L73.0057662,17.2514323 L77.8767799,17.2514323 Z" id="Path"></path>
                    <path d="M90.4906942,17.2514323 L90.4906942,8.06603226 C90.4906942,5.82729677 92.3214108,4.74085161 94.1521273,4.74085161 C94.6424978,4.74085161 95.5251647,4.80669677 96.2116835,4.97130968 L96.2116835,0.131690323 C95.6886216,0.0329225806 95.5251647,-4.25325464e-14 94.9694115,-4.25325464e-14 C93.4983,-4.25325464e-14 90.915682,0.987677419 90.3599288,4.04947742 L90.3599288,0.362148387 L85.6196806,0.362148387 L85.6196806,17.2514323 L90.4906942,17.2514323 Z" id="Path"></path>
                    <path d="M105.467303,8.44056008e-14 C110.371008,8.44056008e-14 114.686268,3.55563871 114.686268,8.79032903 C114.686268,14.0579419 110.371008,17.6135806 105.467303,17.6135806 C100.596289,17.6135806 96.2483374,14.0908645 96.2483374,8.79032903 C96.2483374,3.52271613 100.596289,8.44056008e-14 105.467303,8.44056008e-14 Z M105.467303,4.21409032 C103.080833,4.21409032 100.988586,6.15652258 100.988586,8.79032903 C100.988586,11.4570581 103.080833,13.3994903 105.467303,13.3994903 C107.886464,13.3994903 109.94602,11.4241355 109.94602,8.79032903 C109.94602,6.18944516 107.886464,4.21409032 105.467303,4.21409032 Z" id="Combined-Shape"></path>
                </g>
            </g>
        </g>
    </g>
</svg>