<?xml version="1.0" encoding="UTF-8"?>
<svg width="170px" height="32px" viewBox="0 0 170 32" version="1.1" xmlns="http://www.w3.org/2000/svg" xmlns:xlink="http://www.w3.org/1999/xlink">
    <title>23C95305-4EA1-44B7-8CF8-A7D67970E804</title>
    <defs>
        <polygon id="path-1" points="0.000284037111 0.0397182594 127.688884 0.0397182594 127.688884 16.0256265 0.000284037111 16.0256265"></polygon>
    </defs>
    <g id="Page-1" stroke="none" stroke-width="1" fill="none" fill-rule="evenodd">
        <g id="Home-page-Update" transform="translate(-733.000000, -1297.000000)">
            <g id="Group" transform="translate(733.363636, 1297.000000)">
                <g id="Fill-3-Clipped" transform="translate(39.967742, 7.451613)">
                    <mask id="mask-2" fill="white">
                        <use xlink:href="#path-1"></use>
                    </mask>
                    <g id="path-1"></g>
                    <path d="M115.348702,15.7491653 L115.348702,15.198086 L117.401343,14.9916616 L117.401343,1.16583689 L115.348702,0.91241412 L115.348702,0.407411658 L126.651485,0.407411658 L126.675155,3.6687323 L126.060688,3.6687323 L125.258757,1.23403065 L119.830807,1.16583689 L119.830807,7.34382322 L124.598844,7.34382322 L125.329766,5.64358682 L125.801268,5.64358682 L125.801268,9.91583393 L125.306096,9.91583393 L124.598844,8.17044221 L119.830807,8.17044221 L119.830807,15.0147 L125.966956,14.9455847 L127.075647,12.3274972 L127.689168,12.3274972 L127.406077,15.7491653 L115.348702,15.7491653 Z M111.398692,0.407411658 L111.398692,0.935452554 L109.392444,1.16583689 L109.912232,15.0607769 L111.729122,15.198086 L111.729122,15.7491653 L105.735939,15.7491653 L105.735939,15.2681228 L107.528213,15.0607769 L106.91564,3.20980671 L102.17222,15.7491653 L100.922457,15.7491653 L95.2578101,3.32499888 L94.8109251,14.6239682 L96.7916105,15.198086 L96.7916105,15.7491653 L91.9544585,15.7491653 L91.9544585,15.198086 L93.9133678,14.532736 L94.3848694,1.16583689 L92.3795674,0.935452554 L92.3795674,0.407411658 L96.5558597,0.407411658 L102.17222,13.200193 L107.009372,0.407411658 L111.398692,0.407411658 Z M80.2417148,15.2902397 C83.5763105,15.2902397 85.2445552,12.8712042 85.2445552,8.03221161 C85.2445552,5.70532983 84.8629987,3.91386124 84.0998856,2.65780584 C83.3367726,1.40267199 82.0425101,0.775105057 80.2189919,0.775105057 C78.39358,0.775105057 77.0955304,1.39898584 76.3248431,2.64674739 C75.5541557,3.89543049 75.168812,5.68966369 75.168812,8.03221161 C75.168812,12.8712042 76.8597796,15.2902397 80.2417148,15.2902397 L80.2417148,15.2902397 Z M88.1227979,8.03221161 C88.1227979,10.3286827 87.4070244,12.2316573 85.9764241,13.7392924 C84.5439303,15.247849 82.6247862,16.0016665 80.2189919,16.0016665 C77.8122508,16.0016665 75.8874259,15.247849 74.4492514,13.7392924 C73.0091832,12.2316573 72.2896225,10.3286827 72.2896225,8.03221161 C72.2896225,5.73574056 73.0091832,3.83276595 74.4492514,2.3260524 C75.8874259,0.817495774 77.8122508,0.0636782302 80.2189919,0.0636782302 C82.6247862,0.0636782302 84.5439303,0.817495774 85.9764241,2.3260524 C87.4070244,3.83276595 88.1227979,5.73574056 88.1227979,8.03221161 L88.1227979,8.03221161 Z M68.3405599,15.7491653 L61.8029724,15.7491653 L61.8029724,15.198086 L63.8565607,14.9916616 L63.8565607,8.17044221 L55.4793595,8.17044221 L55.4793595,14.9916616 L57.5329478,15.198086 L57.5329478,15.7491653 L50.996307,15.7491653 L50.996307,15.198086 L53.0489486,14.9916616 L53.0489486,1.16583689 L50.996307,0.958490987 L50.996307,0.407411658 L57.5329478,0.407411658 L57.5329478,0.958490987 L55.4793595,1.16583689 L55.4793595,7.34382322 L63.8565607,7.34382322 L63.8565607,1.16583689 L61.8029724,0.958490987 L61.8029724,0.407411658 L68.3405599,0.407411658 L68.3405599,0.958490987 L66.2869716,1.16583689 L66.2869716,14.9916616 L68.3405599,15.198086 L68.3405599,15.7491653 Z M43.9076875,15.7491653 L37.3719936,15.7491653 L37.3719936,15.198086 L39.4246351,14.9916616 L39.4246351,9.15833024 L33.8565609,1.16583689 L32.0623932,0.91241412 L32.0623932,0.407411658 L38.4333456,0.407411658 L38.4333456,0.889375687 L36.6164549,1.14187692 L41.2888654,7.96401785 L45.3240859,1.48653188 L43.5545347,0.958490987 L43.5545347,0.407411658 L48.3443472,0.407411658 L48.3443472,0.958490987 L46.5511263,1.50957032 L41.855046,8.97402277 L41.855046,14.9916616 L43.9076875,15.198086 L43.9076875,15.7491653 Z M24.9037112,0.407411658 L29.6935237,0.407411658 L29.6935237,0.935452554 L27.759231,1.55564718 L21.6476991,7.20559262 L29.3867636,14.9455847 L31.2746636,15.1068538 L31.2746636,15.7491653 L24.4322096,15.7491653 L24.4322096,15.1068538 L26.1070818,14.9686232 L19.7597991,8.39990501 L19.7597991,14.9916616 L21.8124406,15.198086 L21.8124406,15.7491653 L15.2767467,15.7491653 L15.2767467,15.198086 L17.3293882,14.9916616 L17.3293882,1.16583689 L15.2767467,0.958490987 L15.2767467,0.407411658 L21.8124406,0.407411658 L21.8124406,0.958490987 L19.7597991,1.16583689 L19.7597991,7.73455505 L26.5795301,1.46441499 L24.9037112,0.958490987 L24.9037112,0.407411658 Z M9.01372838,1.16583689 C8.16445741,0.873709552 7.29151669,0.72902819 6.39490621,0.72902819 C5.49829573,0.72902819 4.71151293,0.977843272 4.0355046,1.47547344 C3.35854949,1.9731036 3.02054532,2.71217655 3.02054532,3.69177074 C3.02054532,4.6409542 3.43713309,5.36804716 4.2712554,5.87397116 C4.72760836,6.14951082 5.10064377,6.34856289 5.39225521,6.47112736 C5.68291985,6.59277028 6.10802873,6.75403932 6.66568826,6.95309138 C7.22429457,7.15214345 7.60585109,7.29313866 7.81035781,7.3779201 C8.01486454,7.46270153 8.31783745,7.59171676 8.71832978,7.76865193 C9.1197689,7.94466556 9.41895466,8.10132691 9.61588705,8.23955751 C9.81281945,8.37686657 10.0523574,8.56854634 10.3354477,8.81367527 C10.6185381,9.05788267 10.8306191,9.30393314 10.9726377,9.54814053 C11.3191629,10.1757075 11.4914788,10.8576451 11.4914788,11.5921104 C11.4914788,12.8933211 10.9489679,13.9586182 9.86299934,14.7843157 C8.77797757,15.6118562 7.37010029,16.0256265 5.63936749,16.0256265 C4.31764813,16.0256265 3.08303349,15.8099868 1.93457677,15.3823934 C1.36839612,15.1833414 0.904468842,14.9078017 0.54279492,14.5548529 C0.181120998,14.2028256 0.000284037111,13.7973492 0.000284037111,13.3384236 C0.000284037111,12.5873707 0.558890357,12.0749959 1.6751562,11.7994563 C1.84841884,12.718229 2.17884868,13.4609881 2.66644572,14.026812 C3.15404277,14.5935575 3.66152241,14.9686232 4.18888464,15.1529306 C4.71530009,15.3363166 5.36101112,15.4275488 6.12317737,15.4275488 C6.88629041,15.4275488 7.60585109,15.1870275 8.28280621,14.704142 C8.95881454,14.2221779 9.2968187,13.4296558 9.2968187,12.3274972 C9.2968187,11.485212 8.90390069,10.7959021 8.1171179,10.2604889 C7.48844909,9.84764017 6.71302777,9.45690834 5.79274753,9.08921494 C4.87246729,8.72152154 4.25515997,8.47270646 3.94082556,8.34276969 C3.62649116,8.21191139 3.22126488,8.00640856 2.72514673,7.72257506 C2.22997536,7.43874156 1.86451428,7.16043729 1.62876348,6.88397608 C1.01524332,6.16517696 0.708483235,5.33763643 0.708483235,4.40319756 C0.708483235,2.96467778 1.23489868,1.87726372 2.28867637,1.14187692 C3.34340084,0.407411658 4.79767085,0.0397182594 6.65432677,0.0397182594 C7.77153941,0.0397182594 9.06958901,0.162282726 10.5475288,0.407411658 L10.5475288,3.78392447 L9.81660661,3.78392447 L9.01372838,1.16583689 Z" id="Fill-3" fill="#727787" fill-rule="nonzero" mask="url(#mask-2)"></path>
                </g>
                <path d="M11.4608532,0 C13.6140824,0 16.1157565,0.238174094 18.9658753,0.715952756 L18.9658753,7.28970079 L17.5553647,7.28970079 L16.0095499,2.19148776 C14.3720773,1.62501964 12.6895033,1.34178558 10.9611004,1.34178558 C9.23269752,1.34178558 7.71670779,1.82600138 6.41240377,2.79514822 C5.10882719,3.76429506 4.4570389,5.20192247 4.4570389,7.11017617 C4.4570389,8.95906516 5.26086263,10.3752354 6.86778264,11.358687 C7.52102582,11.7570743 8.08624847,12.0739245 8.56345062,12.3078072 L14.4717369,3.65629419 L16.0204615,8.22237051 L12.1970248,13.7189708 C12.8917322,13.9735954 13.3900302,14.1631333 13.6897364,14.2875847 C14.0840101,14.4513741 14.6674189,14.7052834 15.44069,15.0478821 C15.838513,15.2241381 16.1841583,15.3907394 16.4776261,15.5474913 L21.5166939,7.97580645 L23.0322581,12.5326811 L19.364052,17.9075373 C19.5287797,18.1096659 19.6690875,18.3117945 19.7849754,18.5139232 C20.4513125,19.7362641 20.7852085,21.0630297 20.7852085,22.4935047 C20.7852085,25.0275912 19.738419,27.0996343 17.646295,28.709634 C12.9921193,32.2915435 4.22280248,32.0598065 0.45465143,27.2777285 C-0.700028491,25.8118889 1.06464646,23.1601004 3.03668502,20.4226896 L3.88663345,19.2474793 C4.67700887,18.1517118 5.43857408,17.067395 5.99776167,16.0649499 C5.42817435,15.8103253 4.7254651,15.441978 3.88890647,14.9584775 C2.93377475,14.4070293 2.22815573,13.8627336 1.7735043,13.3263054 C0.59141058,11.9251551 0,10.3151555 0,8.49702172 C0,5.69472112 1.01550943,3.57761807 3.04725574,2.14642779 C5.07900206,0.715952756 7.88329208,0 11.4608532,0 Z M9.55349957,17.5190278 L4.66799716,24.5433754 C2.96869198,26.9859116 3.29676845,28.2232725 6.70847278,29.4248715 C7.72398221,29.7824903 8.96718109,29.9612996 10.4380694,29.9612996 C11.9082303,29.9612996 13.2954627,29.4921038 14.5997667,28.5522817 C15.9033433,27.6138901 16.5551316,26.0711228 16.5551316,23.924695 C16.5551316,23.3806714 16.4716536,22.8694158 16.3046977,22.3909542 L12.7231457,27.6370968 L8.42643588,27.6370968 L13.7896817,19.585649 C12.6719127,18.8962753 11.3418183,18.2412485 9.80082995,17.619161 L9.55349957,17.5190278 Z" id="Combined-Shape" fill="#727787" fill-rule="nonzero"></path>
            </g>
        </g>
    </g>
</svg>