<?xml version="1.0" encoding="UTF-8"?>
<svg width="157px" height="36px" viewBox="0 0 157 36" version="1.1" xmlns="http://www.w3.org/2000/svg" xmlns:xlink="http://www.w3.org/1999/xlink">
    <title>55BAAC45-20E7-4A87-97CB-9805F61776F0</title>
    <g id="Page-1" stroke="none" stroke-width="1" fill="none" fill-rule="evenodd">
        <g id="Home-page-Update" transform="translate(-965.000000, -1294.000000)" fill="#727787" fill-rule="nonzero">
            <g id="Group-Copy" transform="translate(965.363636, 1294.000000)">
                <path d="M60.1395018,11.6786054 C63.1757162,11.6786054 66.7477332,13.1214947 66.7120131,17.0278533 L66.7120131,17.0278533 L62.2469918,17.0278533 C62.2469918,15.9016959 61.3182674,15.3034247 60.2109421,15.3034247 C59.139337,15.3034247 58.2820529,15.9016959 58.2820529,16.746314 C58.2820529,17.5205472 58.9964563,17.9076638 59.9251808,18.1540108 L59.9251808,18.1540108 L62.6756339,18.8578592 C66.6762929,19.9136318 67.1763753,22.3771012 67.1763753,23.7144132 C67.1763753,27.1632704 63.6043583,28.9580838 60.175222,28.9580838 C56.6746453,28.9580838 53.2812292,26.9873083 53.245509,23.362489 L53.245509,23.362489 L57.6390899,23.362489 C57.6390899,24.3126843 58.4606538,25.3332645 60.1037816,25.3332645 C61.4611481,25.3332645 62.497033,24.6646085 62.497033,23.7144132 C62.497033,23.0105648 61.9255103,22.6586406 60.6753043,22.3419088 L60.6753043,22.3419088 L58.4606538,21.8140225 C54.1742334,20.687865 53.6027107,18.3299729 53.6027107,16.6055443 C53.6027107,14.07169 56.2817234,11.6786054 60.1395018,11.6786054 Z M77.773359,11.6786054 C80.8095735,11.6786054 83.238545,13.0511098 84.8102325,15.1978475 L84.8102325,15.1978475 L81.2739357,17.6261245 C80.5238121,16.6055443 79.1307255,15.9720807 77.8090792,15.9720807 C75.1657866,15.9720807 73.3797781,17.8724714 73.3797781,20.265556 C73.3797781,22.693833 75.1657866,24.6646085 77.8090792,24.6646085 C79.1307255,24.6646085 80.5238121,24.031145 81.2739357,23.0105648 L81.2739357,23.0105648 L84.8102325,25.4388418 C83.238545,27.5855794 80.8095735,28.9580838 77.773359,28.9580838 C72.9154159,28.9580838 68.6289955,25.4740342 68.6289955,20.265556 C68.6289955,15.0570778 72.9154159,11.6786054 77.773359,11.6786054 Z M93.525954,11.6786054 C95.5798637,11.6786054 97.6337735,12.5189467 98.7759637,14.0757327 L98.9196996,14.2828445 L98.9196996,12.1009145 L103.599042,12.1009145 L103.599042,28.5357748 L98.9196996,28.5357748 L98.9196996,26.1778826 C97.8123744,27.8671188 95.6691642,28.9580838 93.4187935,28.9580838 C88.8108915,28.9580838 85.3817552,25.4388418 85.3817552,20.3359408 C85.3817552,15.2330399 88.7394512,11.6786054 93.525954,11.6786054 Z M125.566946,11.6786054 C130.353449,11.6786054 134.246948,15.0218854 134.246948,20.0544015 C134.246948,20.4547153 134.219599,20.9358616 134.164903,21.5449929 L134.139787,21.8140225 L121.602008,21.8140225 C122.10209,23.7496056 123.673777,24.8757631 125.888428,24.8757631 C127.512756,24.8757631 129.072965,24.1808834 130.11348,23.1202775 L130.282009,22.9401799 L132.996742,25.6499963 C131.425054,27.7263491 128.531721,28.9580838 125.602667,28.9580838 C120.458962,28.9580838 116.708344,25.4036494 116.708344,20.3359408 C116.708344,15.0218854 120.816164,11.6786054 125.566946,11.6786054 Z M111.118138,6.53892216 L111.118138,20.4841716 L111.119206,20.5751325 C111.168255,22.6613818 112.900172,24.3377416 115.029496,24.3377416 L115.029496,24.3377416 L115.814809,24.3377416 L115.814809,28.9479487 L115.029496,28.9479487 L114.887433,28.9468148 C110.208444,28.872073 106.438795,25.1118425 106.438795,20.4841716 L106.438795,20.4841716 L106.438795,6.53892216 L111.118138,6.53892216 Z M156,11.6799424 L156,16.2901495 L155.214687,16.2901495 C153.085364,16.2901495 151.353446,17.9665093 151.304397,20.0527586 L151.303329,20.1437195 L151.303329,28.5357748 L146.623987,28.5357748 L146.623987,20.1437195 C146.623987,15.5160487 150.393635,11.7558182 155.072625,11.6810763 L155.214687,11.6799424 L156,11.6799424 Z M145.581617,11.6799424 L145.581617,16.2901495 L144.796305,16.2901495 C142.666981,16.2901495 140.935063,17.9665093 140.886014,20.0527586 L140.884946,20.1437195 L140.884946,28.5357748 L136.205604,28.5357748 L136.205604,20.1437195 C136.205604,15.5160487 139.975252,11.7558182 144.654242,11.6810763 L144.796305,11.6799424 L145.581617,11.6799424 Z M94.4189582,15.9720807 C91.9899867,15.9720807 90.168258,17.9428563 90.168258,20.3359408 C90.168258,22.6234482 91.9899867,24.6646085 94.4546784,24.6646085 C96.8122096,24.6646085 98.776819,22.693833 98.776819,20.3359408 C98.776819,17.837279 96.7407693,15.9720807 94.4189582,15.9720807 Z M125.674107,15.6553489 C123.814107,15.6553489 122.219821,16.5388852 121.659923,18.5899514 L121.602008,18.8226668 L129.531885,18.8226668 C129.389005,16.8870836 127.781597,15.6553489 125.674107,15.6553489 Z" id="Combined-Shape-Copy-3"></path>
                <path d="M35.7406925,0 C38.6716408,0 41.0532494,2.33596662 41.1010636,5.23561205 L41.1017964,5.3245509 L41.1017964,30.1724551 C41.1017964,33.0834196 38.7497934,35.4487899 35.8302419,35.4962782 L35.7406925,35.497006 L5.36110388,35.497006 C2.4301556,35.497006 0.0485470569,33.1610394 0.000732798868,30.2613939 L0,30.1724551 L0,19.5233533 C0,16.6123888 2.352003,14.2470184 5.27155447,14.1995302 L5.36110388,14.1988024 L14.296277,14.1988024 C17.2272253,14.1988024 19.6088338,16.534769 19.6566481,19.4344144 L19.6573809,19.5233533 L19.6573809,23.0730539 C19.6573809,26.0137222 17.2571329,28.3976048 14.296277,28.3976048 C11.3653287,28.3976048 8.98372019,26.0616382 8.93590593,23.1619927 L8.93517313,23.0730539 L8.93517313,20.0301998 C8.93517313,19.7501362 9.16376818,19.5230997 9.44575445,19.5230997 L11.9986611,19.5230997 C12.2806473,19.5230997 12.5092424,19.7501362 12.5092424,20.0301998 L12.5092424,23.0730539 C12.5092424,24.0328553 13.2763355,24.8147142 14.2348414,24.846875 L14.296277,24.8479042 C15.2626675,24.8479042 16.0498938,24.0860412 16.0822754,23.1340706 L16.0833116,23.0730539 L16.0833116,19.5233533 C16.0833116,18.5635518 15.3162185,17.781693 14.3577126,17.7495322 L14.296277,17.748503 L5.36110388,17.748503 C4.39471341,17.748503 3.60748714,18.5103659 3.57510548,19.4623365 L3.57406925,19.5233533 L3.57406925,30.1724551 C3.57406925,31.1322565 4.34116239,31.9141154 5.29966825,31.9462762 L5.36110388,31.9473054 L35.7406925,31.9473054 C36.707083,31.9473054 37.4943093,31.1854424 37.5266909,30.2334718 L37.5277272,30.1724551 L37.5277272,5.3245509 C37.5277272,4.36474945 36.760634,3.58289063 35.8021282,3.55072976 L35.7406925,3.5497006 L26.8055194,3.5497006 C26.018388,3.5497006 25.350118,4.0551364 25.1117842,4.75705392 C25.0981854,4.79710384 25.0853048,4.84880751 25.0731424,4.91216494 C25.0272399,5.1513019 24.8167103,5.32429735 24.5715952,5.32429735 L21.982242,5.32429735 C21.7002545,5.32429951 21.4716585,5.0972621 21.4716585,4.81719726 L21.4721367,4.79525441 L21.4721367,4.79525441 L21.4787269,4.71965631 L21.4787269,4.71965631 L21.4813656,4.6960997 C21.791037,2.08040656 24.0096706,0.0447473822 26.71597,0.000727802509 L26.8055194,0 L35.7406925,0 Z M26.8055194,10.6491018 L14.296277,10.6491018 C13.5310758,10.6491018 12.878205,11.1267662 12.6234568,11.7982512 C12.6033408,11.8512747 12.5845604,11.9227226 12.5671157,12.0125948 C12.5207876,12.2512485 12.310483,12.4236985 12.0657657,12.4236985 L9.47280326,12.4236985 C9.19081787,12.4236969 8.96222355,12.1966612 8.96222355,11.9165985 C8.96222355,11.9017121 8.96288355,11.886833 8.96420164,11.8720043 L8.97067524,11.8078559 L8.97067524,11.8078559 C9.27481193,9.18622063 11.4961687,7.14421786 14.2067276,7.100129 L14.296277,7.0994012 L26.8055194,7.0994012 C29.7364677,7.0994012 32.1180762,9.43536782 32.1658905,12.3350132 L32.1666233,12.4239521 L32.1666233,23.0730539 C32.1666233,26.0137222 29.7663753,28.3976048 26.8055194,28.3976048 C23.8745711,28.3976048 21.4929626,26.0616382 21.4451483,23.1619927 L21.4444155,23.0730539 L21.4444155,12.9307986 C21.4444155,12.650735 21.6730106,12.4236985 21.9549968,12.4236985 L24.5079034,12.4236985 C24.7898897,12.4236985 25.0184848,12.650735 25.0184848,12.9307986 L25.0184848,23.0730539 C25.0184848,24.0328553 25.7855779,24.8147142 26.7440838,24.846875 L26.8055194,24.8479042 C27.7719099,24.8479042 28.5591361,24.0860412 28.5915178,23.1340706 L28.592554,23.0730539 L28.592554,12.4239521 C28.592554,11.4641506 27.8254609,10.6822918 26.866955,10.650131 L26.8055194,10.6491018 Z" id="Shape"></path>
            </g>
        </g>
    </g>
</svg>